<svg xmlns="http://www.w3.org/2000/svg" xmlns:xlink="http://www.w3.org/1999/xlink" width="500" zoomAndPan="magnify" viewBox="0 0 375 374.999991" height="500" preserveAspectRatio="xMidYMid meet" version="1.0"><defs><clipPath id="519822664f"><path d="M 14.359375 14.359375 L 360.859375 14.359375 L 360.859375 360.859375 L 14.359375 360.859375 Z M 14.359375 14.359375 " clip-rule="nonzero"/></clipPath></defs><g clip-path="url(#519822664f)"><path fill="#79281d" d="M 360.859375 187.609375 C 360.859375 139.769531 341.472656 96.453125 310.113281 65.101562 C 278.753906 33.753906 235.449219 14.359375 187.609375 14.359375 C 139.769531 14.359375 96.453125 33.742188 65.101562 65.101562 C 33.753906 96.460938 14.359375 139.769531 14.359375 187.609375 C 14.359375 235.449219 33.742188 278.765625 65.101562 310.113281 C 96.460938 341.464844 139.769531 360.859375 187.609375 360.859375 C 235.449219 360.859375 278.765625 341.472656 310.113281 310.113281 C 341.472656 278.765625 360.859375 235.457031 360.859375 187.609375 Z M 360.859375 187.609375 " fill-opacity="1" fill-rule="evenodd"/></g><path fill="#ffffff" d="M 166.601562 95.765625 C 166.601562 97.664062 168.148438 99.21875 170.054688 99.21875 C 171.960938 99.21875 173.507812 97.671875 173.507812 95.765625 C 173.507812 93.859375 171.960938 92.3125 170.054688 92.3125 C 168.148438 92.3125 166.601562 93.859375 166.601562 95.765625 Z M 166.601562 95.765625 " fill-opacity="1" fill-rule="evenodd"/><path fill="#ffffff" d="M 178.601562 95.765625 C 178.601562 100.476562 174.773438 104.3125 170.054688 104.3125 C 165.347656 104.3125 161.507812 100.476562 161.507812 95.765625 C 161.507812 91.046875 165.347656 87.21875 170.054688 87.21875 C 174.773438 87.21875 178.601562 91.046875 178.601562 95.765625 Z M 135.132812 111.394531 L 204.988281 111.394531 L 204.988281 101.078125 C 204.988281 99.558594 203.742188 98.3125 202.210938 98.3125 L 186.867188 98.3125 C 185.457031 98.3125 184.320312 97.175781 184.320312 95.765625 C 184.320312 87.90625 177.925781 81.5 170.054688 81.5 C 162.195312 81.5 155.792969 87.894531 155.792969 95.765625 C 155.792969 97.175781 154.65625 98.3125 153.246094 98.3125 L 137.898438 98.3125 C 136.367188 98.3125 135.125 99.558594 135.125 101.078125 Z M 135.132812 111.394531 " fill-opacity="1" fill-rule="evenodd"/><path fill="#ffffff" d="M 110.863281 107.648438 L 130.046875 107.648438 L 130.046875 102.152344 L 107.328125 102.152344 C 100.6875 102.152344 95.28125 107.558594 95.28125 114.199219 L 95.28125 281.667969 C 95.28125 288.308594 100.6875 293.714844 107.328125 293.714844 L 228.347656 293.714844 C 237.445312 293.714844 244.839844 286.3125 244.839844 277.222656 L 244.839844 222.566406 L 239.34375 228.066406 L 239.34375 278.132812 C 239.34375 283.691406 234.824219 288.210938 229.265625 288.210938 L 110.863281 288.210938 C 105.304688 288.210938 100.777344 283.683594 100.777344 278.132812 L 100.777344 117.726562 C 100.777344 112.175781 105.304688 107.648438 110.863281 107.648438 Z M 110.863281 107.648438 " fill-opacity="1" fill-rule="evenodd"/><path fill="#ffffff" d="M 210.082031 102.152344 L 210.082031 107.648438 L 229.265625 107.648438 C 234.824219 107.648438 239.34375 112.164062 239.34375 117.734375 L 239.34375 195.230469 L 244.839844 189.734375 L 244.839844 114.207031 C 244.839844 107.566406 239.441406 102.160156 232.792969 102.160156 Z M 210.082031 102.152344 " fill-opacity="1" fill-rule="evenodd"/><path fill="#ffffff" d="M 128.820312 131.585938 L 221.027344 131.585938 C 222.441406 131.585938 223.574219 132.722656 223.574219 134.132812 C 223.574219 135.542969 222.441406 136.679688 221.027344 136.679688 L 128.820312 136.679688 C 127.410156 136.679688 126.273438 135.542969 126.273438 134.132812 C 126.273438 132.722656 127.410156 131.585938 128.820312 131.585938 Z M 120.894531 132.328125 C 121.371094 132.804688 121.636719 133.464844 121.636719 134.125 C 121.636719 134.792969 121.363281 135.453125 120.894531 135.929688 C 120.777344 136.046875 120.648438 136.148438 120.5 136.242188 C 120.363281 136.332031 120.21875 136.414062 120.0625 136.46875 C 119.90625 136.535156 119.75 136.578125 119.585938 136.617188 C 119.421875 136.644531 119.253906 136.671875 119.089844 136.671875 C 118.421875 136.671875 117.761719 136.40625 117.296875 135.929688 C 116.820312 135.453125 116.554688 134.792969 116.554688 134.125 C 116.554688 133.464844 116.820312 132.796875 117.296875 132.328125 C 117.414062 132.210938 117.542969 132.109375 117.679688 132.007812 C 117.816406 131.925781 117.972656 131.84375 118.121094 131.777344 C 118.277344 131.714844 118.429688 131.667969 118.597656 131.632812 C 118.925781 131.558594 119.253906 131.558594 119.59375 131.632812 C 119.757812 131.660156 119.914062 131.714844 120.070312 131.777344 C 120.226562 131.84375 120.375 131.925781 120.511719 132.007812 C 120.648438 132.101562 120.777344 132.210938 120.894531 132.328125 Z M 105.871094 117.726562 L 105.871094 278.121094 C 105.871094 280.871094 108.105469 283.105469 110.855469 283.105469 L 229.257812 283.105469 C 232.003906 283.105469 234.238281 280.871094 234.238281 278.121094 L 234.238281 233.148438 L 209.035156 258.351562 C 208.980469 258.40625 208.917969 258.472656 208.855469 258.515625 L 208.835938 258.535156 L 208.816406 258.542969 L 208.808594 258.554688 L 208.796875 258.554688 L 208.78125 258.5625 L 208.769531 258.570312 L 208.761719 258.570312 L 208.742188 258.582031 L 208.734375 258.589844 L 208.726562 258.589844 L 208.707031 258.601562 L 208.699219 258.609375 L 208.679688 258.617188 L 208.671875 258.628906 L 208.652344 258.636719 L 208.597656 258.671875 L 208.578125 258.683594 C 208.421875 258.78125 208.265625 258.867188 208.101562 258.929688 L 186.410156 267.824219 C 186.097656 267.953125 185.765625 268.007812 185.4375 268.007812 C 184.777344 268.007812 184.128906 267.75 183.632812 267.265625 C 182.910156 266.535156 182.699219 265.441406 183.074219 264.5 L 191.976562 242.769531 L 191.976562 242.75 L 191.988281 242.730469 L 191.996094 242.714844 C 192.117188 242.421875 192.300781 242.144531 192.539062 241.90625 L 192.621094 241.824219 L 234.167969 200.269531 L 234.167969 117.6875 C 234.167969 114.941406 231.929688 112.707031 229.183594 112.707031 L 209.988281 112.707031 C 209.804688 114.804688 208.039062 116.453125 205.894531 116.453125 L 134.085938 116.453125 C 131.945312 116.453125 130.183594 114.804688 129.992188 112.707031 L 110.800781 112.707031 C 108.117188 112.742188 105.871094 114.976562 105.871094 117.726562 Z M 128.820312 153.472656 L 221.027344 153.472656 C 222.441406 153.472656 223.574219 154.609375 223.574219 156.019531 C 223.574219 157.429688 222.441406 158.566406 221.027344 158.566406 L 128.820312 158.566406 C 127.410156 158.566406 126.273438 157.429688 126.273438 156.019531 C 126.273438 154.617188 127.410156 153.472656 128.820312 153.472656 Z M 128.820312 175.367188 L 221.027344 175.367188 C 222.441406 175.367188 223.574219 176.503906 223.574219 177.914062 C 223.574219 179.328125 222.441406 180.460938 221.027344 180.460938 L 128.820312 180.460938 C 127.410156 180.460938 126.273438 179.328125 126.273438 177.914062 C 126.273438 176.503906 127.410156 175.367188 128.820312 175.367188 Z M 128.820312 197.253906 L 221.027344 197.253906 C 222.441406 197.253906 223.574219 198.390625 223.574219 199.800781 C 223.574219 201.214844 222.441406 202.347656 221.027344 202.347656 L 128.820312 202.347656 C 127.410156 202.347656 126.273438 201.214844 126.273438 199.800781 C 126.273438 198.402344 127.410156 197.253906 128.820312 197.253906 Z M 128.820312 219.152344 L 199.078125 219.152344 C 200.488281 219.152344 201.625 220.285156 201.625 221.699219 C 201.625 223.109375 200.488281 224.246094 199.078125 224.246094 L 128.820312 224.246094 C 127.410156 224.246094 126.273438 223.109375 126.273438 221.699219 C 126.273438 220.296875 127.410156 219.152344 128.820312 219.152344 Z M 128.820312 241.039062 L 180.691406 241.039062 C 182.101562 241.039062 183.238281 242.171875 183.238281 243.585938 C 183.238281 244.996094 182.101562 246.132812 180.691406 246.132812 L 128.820312 246.132812 C 127.410156 246.132812 126.273438 244.996094 126.273438 243.585938 C 126.273438 242.183594 127.410156 241.039062 128.820312 241.039062 Z M 121.207031 264.070312 C 121.289062 264.207031 121.371094 264.351562 121.4375 264.507812 C 121.5 264.664062 121.546875 264.820312 121.582031 264.984375 C 121.621094 265.148438 121.636719 265.316406 121.636719 265.480469 C 121.636719 265.644531 121.621094 265.808594 121.582031 265.972656 C 121.554688 266.140625 121.5 266.296875 121.4375 266.449219 C 121.371094 266.605469 121.289062 266.753906 121.207031 266.890625 C 121.117188 267.039062 121.003906 267.15625 120.886719 267.285156 C 120.417969 267.761719 119.757812 268.027344 119.089844 268.027344 C 118.925781 268.027344 118.75 268.007812 118.597656 267.972656 C 118.441406 267.945312 118.277344 267.890625 118.121094 267.824219 C 117.964844 267.761719 117.816406 267.679688 117.679688 267.597656 C 117.542969 267.503906 117.414062 267.394531 117.296875 267.285156 C 117.175781 267.164062 117.074219 267.039062 116.972656 266.890625 C 116.882812 266.753906 116.800781 266.597656 116.746094 266.449219 C 116.679688 266.296875 116.636719 266.140625 116.597656 265.972656 C 116.570312 265.808594 116.542969 265.644531 116.542969 265.480469 C 116.542969 265.316406 116.5625 265.140625 116.597656 264.984375 C 116.636719 264.820312 116.679688 264.664062 116.746094 264.507812 C 116.808594 264.351562 116.890625 264.207031 116.972656 264.070312 C 117.066406 263.921875 117.175781 263.804688 117.296875 263.675781 C 117.890625 263.078125 118.761719 262.8125 119.59375 262.980469 C 119.757812 263.007812 119.914062 263.0625 120.070312 263.125 C 120.226562 263.1875 120.375 263.273438 120.511719 263.355469 C 120.648438 263.445312 120.777344 263.554688 120.894531 263.675781 C 121.015625 263.804688 121.117188 263.929688 121.207031 264.070312 Z M 128.820312 262.933594 L 174.921875 262.933594 C 176.332031 262.933594 177.46875 264.070312 177.46875 265.480469 C 177.46875 266.890625 176.332031 268.027344 174.921875 268.027344 L 128.8125 268.027344 C 127.398438 268.027344 126.265625 266.890625 126.265625 265.480469 C 126.273438 264.078125 127.410156 262.933594 128.820312 262.933594 Z M 120.894531 241.789062 C 121.371094 242.265625 121.636719 242.925781 121.636719 243.585938 C 121.636719 243.75 121.621094 243.921875 121.582031 244.078125 C 121.546875 244.242188 121.5 244.398438 121.4375 244.554688 C 121.371094 244.710938 121.289062 244.859375 121.207031 244.996094 C 121.117188 245.140625 121.003906 245.261719 120.886719 245.390625 C 120.765625 245.507812 120.640625 245.609375 120.5 245.699219 C 120.363281 245.792969 120.207031 245.875 120.0625 245.929688 C 119.90625 245.992188 119.75 246.046875 119.585938 246.074219 C 119.421875 246.113281 119.253906 246.132812 119.089844 246.132812 C 118.925781 246.132812 118.75 246.113281 118.597656 246.074219 C 118.441406 246.046875 118.277344 245.992188 118.121094 245.929688 C 117.964844 245.867188 117.816406 245.78125 117.679688 245.699219 C 117.535156 245.609375 117.414062 245.5 117.296875 245.390625 C 117.175781 245.269531 117.074219 245.140625 116.972656 244.996094 C 116.882812 244.859375 116.800781 244.703125 116.746094 244.554688 C 116.679688 244.398438 116.636719 244.242188 116.597656 244.078125 C 116.570312 243.914062 116.542969 243.75 116.542969 243.585938 C 116.542969 242.925781 116.808594 242.253906 117.285156 241.789062 C 117.40625 241.667969 117.535156 241.570312 117.671875 241.46875 C 117.808594 241.375 117.964844 241.292969 118.109375 241.230469 C 118.265625 241.164062 118.421875 241.121094 118.585938 241.082031 C 119.421875 240.925781 120.300781 241.203125 120.894531 241.789062 Z M 121.445312 220.726562 C 121.507812 220.882812 121.554688 221.039062 121.59375 221.203125 C 121.621094 221.367188 121.648438 221.53125 121.648438 221.699219 C 121.648438 221.863281 121.628906 222.035156 121.59375 222.191406 C 121.554688 222.355469 121.507812 222.511719 121.445312 222.667969 C 121.382812 222.824219 121.296875 222.972656 121.214844 223.109375 C 121.125 223.253906 121.015625 223.375 120.894531 223.492188 C 120.777344 223.613281 120.648438 223.714844 120.511719 223.8125 C 120.375 223.90625 120.21875 223.988281 120.070312 224.042969 C 119.914062 224.105469 119.757812 224.164062 119.59375 224.191406 C 119.429688 224.226562 119.265625 224.246094 119.101562 224.246094 C 118.429688 224.246094 117.773438 223.980469 117.304688 223.492188 C 116.828125 223.015625 116.5625 222.367188 116.5625 221.699219 C 116.5625 221.53125 116.582031 221.367188 116.617188 221.203125 C 116.652344 221.039062 116.699219 220.882812 116.765625 220.726562 C 116.828125 220.570312 116.910156 220.425781 116.992188 220.285156 C 117.085938 220.148438 117.195312 220.019531 117.3125 219.902344 C 117.433594 219.78125 117.5625 219.683594 117.699219 219.582031 C 117.835938 219.5 117.992188 219.417969 118.136719 219.351562 C 118.285156 219.289062 118.449219 219.242188 118.613281 219.207031 C 119.449219 219.039062 120.328125 219.308594 120.914062 219.902344 C 121.03125 220.019531 121.132812 220.148438 121.234375 220.285156 C 121.308594 220.425781 121.371094 220.570312 121.445312 220.726562 Z M 121.648438 199.8125 C 121.648438 199.976562 121.628906 200.148438 121.59375 200.304688 C 121.554688 200.472656 121.507812 200.625 121.445312 200.78125 C 121.382812 200.9375 121.296875 201.085938 121.214844 201.222656 C 121.125 201.359375 121.015625 201.488281 120.894531 201.605469 C 120.777344 201.726562 120.648438 201.828125 120.5 201.925781 C 120.363281 202.019531 120.21875 202.101562 120.0625 202.15625 C 119.90625 202.222656 119.75 202.277344 119.585938 202.304688 C 119.421875 202.339844 119.253906 202.359375 119.089844 202.359375 C 118.925781 202.359375 118.75 202.339844 118.597656 202.304688 C 118.441406 202.277344 118.277344 202.222656 118.121094 202.15625 C 117.964844 202.09375 117.816406 202.011719 117.679688 201.925781 C 117.542969 201.835938 117.414062 201.726562 117.296875 201.605469 C 117.175781 201.488281 117.074219 201.359375 116.972656 201.222656 C 116.875 201.085938 116.800781 200.929688 116.746094 200.78125 C 116.679688 200.625 116.636719 200.472656 116.597656 200.304688 C 116.570312 200.140625 116.542969 199.976562 116.542969 199.8125 C 116.542969 199.644531 116.5625 199.480469 116.597656 199.316406 C 116.636719 199.152344 116.679688 198.996094 116.746094 198.839844 C 116.808594 198.683594 116.890625 198.539062 116.972656 198.402344 C 117.066406 198.261719 117.175781 198.136719 117.296875 198.015625 C 117.414062 197.898438 117.542969 197.796875 117.679688 197.695312 C 117.816406 197.613281 117.972656 197.53125 118.121094 197.464844 C 118.265625 197.402344 118.429688 197.355469 118.597656 197.320312 C 118.925781 197.253906 119.253906 197.253906 119.59375 197.320312 C 119.757812 197.355469 119.914062 197.402344 120.070312 197.464844 C 120.226562 197.53125 120.375 197.613281 120.511719 197.695312 C 120.648438 197.785156 120.777344 197.898438 120.894531 198.015625 C 121.015625 198.136719 121.117188 198.261719 121.214844 198.402344 C 121.308594 198.546875 121.382812 198.695312 121.445312 198.839844 C 121.507812 198.996094 121.554688 199.152344 121.59375 199.316406 C 121.621094 199.472656 121.648438 199.636719 121.648438 199.8125 Z M 121.445312 178.886719 C 121.382812 179.042969 121.296875 179.1875 121.214844 179.328125 C 121.125 179.472656 121.015625 179.59375 120.894531 179.71875 C 120.777344 179.839844 120.648438 179.941406 120.5 180.03125 C 120.363281 180.125 120.21875 180.207031 120.0625 180.261719 C 119.90625 180.324219 119.75 180.378906 119.585938 180.40625 C 119.421875 180.445312 119.253906 180.460938 119.089844 180.460938 C 118.925781 180.460938 118.75 180.445312 118.597656 180.40625 C 118.441406 180.378906 118.277344 180.324219 118.121094 180.261719 C 117.964844 180.195312 117.816406 180.113281 117.679688 180.03125 C 117.535156 179.941406 117.414062 179.832031 117.296875 179.71875 C 117.175781 179.601562 117.074219 179.472656 116.972656 179.328125 C 116.882812 179.1875 116.800781 179.035156 116.746094 178.886719 C 116.679688 178.730469 116.636719 178.566406 116.597656 178.410156 C 116.570312 178.246094 116.542969 178.082031 116.542969 177.914062 C 116.542969 177.257812 116.808594 176.585938 117.285156 176.121094 C 117.40625 176 117.535156 175.898438 117.671875 175.800781 C 117.808594 175.71875 117.964844 175.632812 118.109375 175.570312 C 118.265625 175.507812 118.421875 175.460938 118.585938 175.425781 C 119.421875 175.257812 120.300781 175.523438 120.886719 176.121094 C 121.363281 176.597656 121.628906 177.257812 121.628906 177.914062 C 121.628906 178.082031 121.609375 178.253906 121.574219 178.410156 C 121.554688 178.574219 121.507812 178.742188 121.445312 178.886719 Z M 121.648438 156.019531 C 121.648438 156.6875 121.371094 157.347656 120.90625 157.816406 C 120.4375 158.292969 119.769531 158.558594 119.109375 158.558594 C 118.441406 158.558594 117.78125 158.292969 117.3125 157.816406 C 117.195312 157.695312 117.09375 157.570312 116.992188 157.429688 C 116.902344 157.292969 116.820312 157.136719 116.765625 156.992188 C 116.699219 156.835938 116.644531 156.679688 116.617188 156.515625 C 116.582031 156.351562 116.5625 156.183594 116.5625 156.019531 C 116.5625 155.855469 116.582031 155.691406 116.617188 155.527344 C 116.644531 155.359375 116.699219 155.203125 116.765625 155.050781 C 116.828125 154.894531 116.910156 154.746094 116.992188 154.609375 C 117.085938 154.472656 117.195312 154.34375 117.3125 154.222656 C 117.433594 154.105469 117.5625 154.003906 117.699219 153.902344 C 117.835938 153.820312 117.992188 153.738281 118.136719 153.675781 C 118.292969 153.609375 118.457031 153.566406 118.613281 153.527344 C 119.449219 153.363281 120.328125 153.628906 120.914062 154.222656 C 121.03125 154.34375 121.132812 154.472656 121.234375 154.609375 C 121.328125 154.757812 121.398438 154.902344 121.464844 155.050781 C 121.527344 155.203125 121.574219 155.359375 121.609375 155.527344 C 121.621094 155.691406 121.648438 155.855469 121.648438 156.019531 Z M 121.648438 156.019531 " fill-opacity="1" fill-rule="evenodd"/><path fill="#ffffff" d="M 265.058594 176.699219 L 269.613281 181.25 L 269.722656 181.359375 L 274.273438 185.914062 L 278.023438 182.167969 C 279.257812 180.929688 279.9375 179.289062 279.9375 177.550781 C 279.9375 175.808594 279.257812 174.167969 278.023438 172.933594 C 275.484375 170.394531 271.332031 170.394531 268.796875 172.933594 Z M 265.058594 176.699219 " fill-opacity="1" fill-rule="evenodd"/><path fill="#ffffff" d="M 267.871094 186.710938 L 204.429688 250.152344 L 207.242188 252.964844 L 234.925781 225.28125 C 234.972656 225.234375 235.007812 225.199219 235.054688 225.152344 L 245.515625 214.6875 C 245.5625 214.644531 245.601562 214.605469 245.644531 214.5625 L 270.683594 189.523438 Z M 267.871094 186.710938 " fill-opacity="1" fill-rule="evenodd"/><path fill="#ffffff" d="M 261.46875 180.296875 L 249.273438 192.5 C 249.21875 192.554688 249.171875 192.601562 249.117188 192.65625 L 238.546875 203.226562 L 198.023438 243.757812 L 200.835938 246.570312 L 264.28125 183.128906 Z M 261.46875 180.296875 " fill-opacity="1" fill-rule="evenodd"/><path fill="#ffffff" d="M 195.324219 248.257812 L 190.171875 260.816406 L 202.734375 255.667969 L 199.050781 251.976562 L 199.03125 251.96875 L 199.023438 251.957031 Z M 195.324219 248.257812 " fill-opacity="1" fill-rule="evenodd"/></svg>